# Blender v2.79 (sub 0) OBJ File: 'thatchHouse.blend'
# www.blender.org
mtllib base.mtl
o Plane
v -42.734108 0.020888 43.151665
v 41.569000 0.020888 43.151665
v -42.734108 0.020888 -41.151443
v 41.569000 0.020888 -41.151443
vn 0.0000 1.0000 0.0000
usemtl Material.001
s off
f 1//1 2//1 4//1 3//1
o Wall_Cube
v -8.694464 0.033082 -2.314869
v -8.694464 0.033082 2.976991
v -9.385254 0.033082 2.798394
v -9.385254 0.033082 -2.271187
v -8.694464 2.284983 -2.314867
v -8.694464 2.284983 2.976992
v -9.385254 2.284984 2.798394
v -9.385254 2.284984 -2.271186
v -6.569744 0.033082 9.731790
v -7.340710 0.033082 9.269462
v -6.569744 2.284983 9.731791
v -7.340710 2.284983 9.269462
v -1.684409 0.033081 14.112140
v -1.561627 0.033081 14.673706
v -1.684407 2.284983 14.112140
v -1.561627 2.284983 14.673706
v 12.729641 0.033080 16.612385
v 12.962589 0.033080 17.021223
v 12.729643 2.284981 16.612383
v 12.962589 2.284981 17.021223
v 21.717113 0.033079 13.848196
v 22.292027 0.033079 13.866580
v 21.717113 2.284980 13.848192
v 22.292027 2.284981 13.866580
v 28.331884 0.033077 4.222551
v 28.846134 0.033077 3.825755
v 28.331884 2.284979 4.222548
v 28.846134 2.284979 3.825755
v 26.968542 0.033076 -5.688555
v 27.321354 0.033076 -6.191187
v 26.968538 2.284978 -5.688558
v 27.321354 2.284978 -6.191187
v 21.921492 0.033075 -12.872788
v 21.940676 0.033075 -13.495012
v 21.921482 2.284976 -12.872789
v 21.940676 2.284976 -13.495012
v 14.366415 0.033073 -16.246115
v 14.468433 0.033073 -16.797770
v 14.366411 2.284975 -16.246115
v 14.468433 2.284975 -16.797770
v 7.133484 0.033072 -18.380129
v 6.492190 0.033072 -18.720413
v 7.133480 2.284973 -18.380125
v 6.492190 2.284974 -18.720413
v -0.915795 0.033070 -13.953268
v -1.469983 0.033070 -14.330459
v -0.915800 2.284972 -13.953264
v -1.469983 2.284972 -14.330459
v -7.309324 0.033069 -8.621943
v -7.995649 0.033068 -8.670853
v -7.309326 2.284970 -8.621940
v -7.995649 2.284970 -8.670853
vn 0.0000 -1.0000 0.0000
vn 0.0000 1.0000 0.0000
vn 1.0000 0.0000 0.0000
vn -1.0000 -0.0000 0.0000
vn -0.9772 0.0000 -0.2122
vn -0.6830 0.0000 0.7304
vn -0.9535 0.0000 0.3013
vn 0.9539 0.0000 -0.3001
vn 0.6676 -0.0000 -0.7445
vn 0.3203 0.0000 0.9473
vn 0.1709 -0.0000 -0.9853
vn -0.1596 0.0000 0.9872
vn -0.2940 -0.0000 -0.9558
vn -0.8242 -0.0000 -0.5664
vn 0.8374 0.0000 0.5466
vn 0.8051 0.0000 -0.5931
vn -0.9907 0.0000 0.1363
vn 0.9886 0.0000 -0.1505
vn -0.8183 -0.0000 0.5748
vn -0.2830 -0.0000 0.9591
vn -0.4077 -0.0000 0.9131
vn 0.4043 0.0000 -0.9146
vn -0.4828 0.0000 -0.8757
vn 0.2343 0.0000 -0.9722
vn 0.4819 -0.0000 0.8762
vn 0.6404 -0.0000 0.7680
vn -0.6552 0.0000 -0.7555
vn 0.9767 0.0000 0.2145
usemtl Material
s off
f 5//2 6//2 7//2 8//2
f 9//3 12//3 11//3 10//3
f 5//4 9//4 10//4 6//4
f 7//2 6//2 13//2 14//2
f 7//5 11//5 12//5 8//5
f 12//6 56//6 54//6 8//6
f 16//7 14//7 18//7 20//7
f 10//3 11//3 16//3 15//3
f 11//8 7//8 14//8 16//8
f 6//9 10//9 15//9 13//9
f 19//3 20//3 24//3 23//3
f 14//2 13//2 17//2 18//2
f 15//3 16//3 20//3 19//3
f 13//10 15//10 19//10 17//10
f 24//11 22//11 26//11 28//11
f 17//12 19//12 23//12 21//12
f 20//13 18//13 22//13 24//13
f 18//2 17//2 21//2 22//2
f 26//2 25//2 29//2 30//2
f 22//2 21//2 25//2 26//2
f 23//3 24//3 28//3 27//3
f 21//14 23//14 27//14 25//14
f 31//3 32//3 36//3 35//3
f 27//3 28//3 32//3 31//3
f 25//15 27//15 31//15 29//15
f 28//16 26//16 30//16 32//16
f 36//17 34//17 38//17 40//17
f 29//18 31//18 35//18 33//18
f 32//19 30//19 34//19 36//19
f 30//2 29//2 33//2 34//2
f 39//3 40//3 44//3 43//3
f 34//2 33//2 37//2 38//2
f 35//3 36//3 40//3 39//3
f 33//20 35//20 39//20 37//20
f 41//21 43//21 47//21 45//21
f 37//22 39//22 43//22 41//22
f 40//23 38//23 42//23 44//23
f 38//2 37//2 41//2 42//2
f 48//24 46//24 50//24 52//24
f 44//25 42//25 46//25 48//25
f 42//2 41//2 45//2 46//2
f 43//3 44//3 48//3 47//3
f 51//3 52//3 56//3 55//3
f 46//2 45//2 49//2 50//2
f 47//3 48//3 52//3 51//3
f 45//26 47//26 51//26 49//26
f 8//2 54//2 53//2 5//2
f 49//27 51//27 55//27 53//27
f 52//28 50//28 54//28 56//28
f 50//2 49//2 53//2 54//2
f 9//29 5//29 53//29 55//29
f 12//3 9//3 55//3 56//3
