# Blender v2.79 (sub 0) OBJ File: 'thatchHouse.blend'
# www.blender.org
mtllib hall.mtl
o CastleWalls.002_Cylinder.006
v -1.362614 -0.034094 5.222414
v -1.362614 2.851776 5.222414
v -1.362614 -0.034094 0.767013
v -1.362614 2.851776 0.767013
v 1.503363 -0.034094 5.222414
v 1.503363 2.851776 5.222414
v 1.503363 -0.034094 0.767013
v 1.503363 2.851776 0.767013
v -1.478672 2.868524 5.402836
v -1.478672 2.868524 0.586592
v 1.619422 2.868524 5.402836
v 1.606969 2.868524 0.586592
v -0.010151 4.231659 5.402836
v -0.010151 4.231659 0.586592
v 0.150901 4.231659 5.402836
v 0.150901 4.231659 0.586592
v -1.362614 2.115859 5.222414
v -1.362614 2.115859 0.767013
v 1.503363 2.115859 0.767013
v 1.503363 2.115859 5.222414
v -1.362614 1.377708 0.767013
v 1.503363 1.377708 0.767013
v 1.503363 1.377708 5.222414
v -1.362614 1.377708 5.222414
v -1.362614 -0.034094 4.483948
v -1.362614 2.851776 4.483948
v 1.503363 -0.034094 4.483948
v 1.503363 2.851776 4.483948
v -1.478672 2.868524 4.604561
v 1.617357 2.868524 4.604561
v -0.010151 4.231659 4.604561
v 0.150901 4.231659 4.604561
v 1.503363 2.079197 4.447287
v -1.362614 2.115859 4.483948
v -1.362614 1.377708 4.483948
v 1.503363 1.414369 4.447287
v -1.362614 2.851776 4.017964
v 1.503363 -0.034094 4.017964
v -1.478672 2.868524 4.100838
v -0.010151 4.231659 4.100838
v -1.362614 2.115859 4.017964
v -1.362614 1.377708 4.017964
v -1.362614 -0.034094 4.017964
v 1.503363 2.851776 4.017964
v 1.616055 2.868524 4.100838
v 0.150901 4.231659 4.100838
v 1.503363 2.079197 4.054626
v 1.503363 1.414369 4.054626
v -1.362614 2.851776 1.801360
v 1.503363 -0.034094 1.801360
v -1.478672 2.868524 1.704710
v -0.010151 4.231659 1.704710
v -1.362614 2.115859 1.801360
v -1.362614 1.377708 1.801360
v -1.362614 -0.034094 1.801360
v 1.503363 2.851776 1.801360
v 1.609859 2.868524 1.704710
v 0.150901 4.231659 1.704710
v 1.503363 2.060236 1.745738
v 1.503363 1.433330 1.745738
v -1.362614 2.851776 1.284187
v 1.503363 -0.034094 1.284187
v -1.478672 2.868524 1.145651
v -0.010151 4.231659 1.145651
v -1.362614 2.115859 1.284187
v -1.362614 1.377708 1.284187
v -1.362614 -0.034094 1.284186
v 1.503363 2.851776 1.284186
v 1.608414 2.868524 1.145651
v 0.150901 4.231659 1.145651
v 1.503363 2.060236 1.339808
v 1.503363 1.433330 1.339808
v -1.362614 -0.034094 3.309809
v 1.503363 2.851776 3.309809
v 1.614075 2.868524 3.335329
v 0.150901 4.231659 3.335329
v 1.503363 2.115859 3.309809
v 1.503363 1.377708 3.309809
v -1.362614 2.851776 3.309809
v 1.503363 -0.034094 3.309809
v -1.478672 2.868524 3.335329
v -0.010151 4.231659 3.335329
v -1.362614 2.115859 3.309809
v -1.362614 1.377708 3.309809
v -1.362614 2.851776 2.703346
v 1.503363 -0.034094 2.703346
v -1.478672 2.868524 2.679749
v -0.010151 4.231659 2.679749
v -1.362614 2.115859 2.703346
v -1.362614 1.377708 2.703346
v -1.362614 -0.034094 2.703346
v 1.503363 2.851776 2.703346
v 1.612381 2.868524 2.679749
v 0.150901 4.231659 2.679749
v 1.503363 2.115859 2.703346
v 1.503363 1.377708 2.703346
v 1.503363 2.115859 1.284186
v 1.503363 2.115859 1.801360
v 1.503363 1.377708 1.284186
v 1.503363 1.377708 1.801360
v 1.104169 2.060236 1.745738
v 1.104169 1.433330 1.745738
v 1.104169 2.060236 1.339808
v 1.104169 1.433330 1.339808
v 1.503363 2.115859 4.017964
v 1.503363 2.115859 4.483948
v 1.503363 1.377708 4.017964
v 1.503363 1.377708 4.483948
v 1.014393 2.079197 4.447287
v 1.014393 1.414369 4.447287
v 1.014393 2.079197 4.054626
v 1.014393 1.414369 4.054626
v -1.362614 1.377708 2.464686
v -1.362614 -0.034094 2.464687
v -1.362614 0.435517 1.801360
v -1.362614 0.435517 2.464686
v -1.362614 0.808306 2.133023
v -1.362614 0.727143 1.967191
v -1.362614 0.727143 2.298855
v -1.362614 0.654426 1.884275
v -1.362614 0.654426 2.381771
v -1.445323 0.364700 1.860890
v -1.445323 -0.034484 1.860890
v -1.445323 -0.034484 2.405156
v -1.445323 0.364700 2.405156
v -1.445323 0.559537 2.331358
v -1.445323 0.617238 2.000483
v -1.445323 0.682108 2.133023
v -1.445323 0.559537 1.934688
v -1.445323 0.617238 2.265563
v -1.445323 0.435517 1.801360
v -1.445323 -0.034094 1.801360
v -1.445323 -0.034094 2.464687
v -1.445323 0.435517 2.464686
v -1.445323 0.654426 2.381771
v -1.445323 0.727143 1.967191
v -1.445323 0.808306 2.133023
v -1.445323 0.654426 1.884275
v -1.445323 0.727143 2.298855
v -0.710909 0.364700 1.860890
v -0.710909 -0.034484 1.860890
v -0.710909 -0.034484 2.405156
v -0.710909 0.364700 2.405155
v -0.710909 0.559537 2.331357
v -0.710909 0.617238 2.000482
v -0.710909 0.682108 2.133023
v -0.710909 0.559537 1.934688
v -0.710909 0.617238 2.265563
vn -1.0000 0.0000 0.0000
vn 0.0000 0.0000 -1.0000
vn 1.0000 0.0000 0.0000
vn 0.0000 0.0000 1.0000
vn 0.0000 -1.0000 0.0000
vn -0.1428 -0.9897 0.0000
vn 0.1582 -0.9874 -0.0002
vn 0.0000 -0.9957 -0.0924
vn 0.0000 -0.9957 0.0924
vn 0.0000 1.0000 0.0000
vn 0.6832 0.7302 -0.0009
vn -0.6803 0.7329 0.0000
vn 0.6806 0.7327 -0.0009
vn 0.1443 -0.9895 -0.0002
vn 0.6810 0.7323 -0.0009
vn 0.1463 -0.9892 -0.0002
vn 0.6824 0.7310 -0.0009
vn 0.1535 -0.9882 -0.0002
vn 0.6829 0.7305 -0.0009
vn 0.1562 -0.9877 -0.0002
vn 0.1484 -0.9889 -0.0002
vn 0.6814 0.7319 -0.0009
vn 0.1507 -0.9886 -0.0002
vn 0.6819 0.7315 -0.0009
vn 0.0000 -0.8982 -0.4396
vn 0.0000 0.8982 0.4396
vn 0.0000 0.3542 0.9352
vn 0.0000 0.3542 -0.9352
vn 0.0000 0.8982 -0.4396
vn 0.0000 0.7518 0.6594
vn 0.0000 0.7518 -0.6594
vn 0.0000 -0.3542 -0.9352
vn 0.0000 -0.3542 0.9352
vn 0.0000 -0.8982 0.4396
vn 0.0000 -0.7518 -0.6594
vn 0.0000 -0.7518 0.6594
vn 0.0001 -1.0000 0.0000
usemtl None
s off
f 65//1 61//1 4//1 18//1
f 18//2 4//2 8//2 19//2
f 106//3 28//3 6//3 20//3
f 20//4 6//4 2//4 17//4
f 25//5 27//5 5//5 1//5
f 26//6 2//6 9//6 29//6
f 68//7 8//7 12//7 69//7
f 8//8 4//8 10//8 12//8
f 2//9 6//9 11//9 9//9
f 9//4 11//4 15//4 13//4
f 32//10 31//10 13//10 15//10
f 12//2 10//2 14//2 16//2
f 69//11 12//11 16//11 70//11
f 29//12 9//12 13//12 31//12
f 23//4 20//4 17//4 24//4
f 108//3 106//3 20//3 23//3
f 21//2 18//2 19//2 22//2
f 66//1 65//1 18//1 21//1
f 67//1 66//1 21//1 3//1
f 3//2 21//2 22//2 7//2
f 27//3 108//3 23//3 5//3
f 5//4 23//4 24//4 1//4
f 38//3 107//3 108//3 27//3
f 1//1 24//1 35//1 25//1
f 24//1 17//1 34//1 35//1
f 48//4 47//4 111//4 112//4
f 39//12 29//12 31//12 40//12
f 11//13 30//13 32//13 15//13
f 46//10 40//10 31//10 32//10
f 6//14 28//14 30//14 11//14
f 37//6 26//6 29//6 39//6
f 43//5 38//5 27//5 25//5
f 105//3 44//3 28//3 106//3
f 17//1 2//1 26//1 34//1
f 77//3 74//3 44//3 105//3
f 73//5 80//5 38//5 43//5
f 79//6 37//6 39//6 81//6
f 76//10 82//10 40//10 46//10
f 81//12 39//12 40//12 82//12
f 78//3 77//3 105//3 107//3
f 80//3 78//3 107//3 38//3
f 25//1 35//1 42//1 43//1
f 35//1 34//1 41//1 42//1
f 30//15 45//15 46//15 32//15
f 28//16 44//16 45//16 30//16
f 34//1 26//1 37//1 41//1
f 62//3 99//3 100//3 50//3
f 72//4 71//4 103//4 104//4
f 63//12 51//12 52//12 64//12
f 70//10 64//10 52//10 58//10
f 61//6 49//6 51//6 63//6
f 67//5 62//5 50//5 55//5
f 97//3 68//3 56//3 98//3
f 116//1 113//1 54//1 115//1 120//1 118//1 117//1 119//1 121//1
f 90//1 89//1 53//1 54//1 113//1
f 93//17 57//17 58//17 94//17
f 92//18 56//18 57//18 93//18
f 89//1 85//1 49//1 53//1
f 19//3 8//3 68//3 97//3
f 3//5 7//5 62//5 67//5
f 4//6 61//6 63//6 10//6
f 16//10 14//10 64//10 70//10
f 10//12 63//12 64//12 14//12
f 22//3 19//3 97//3 99//3
f 7//3 22//3 99//3 62//3
f 55//1 115//1 54//1 66//1 67//1
f 54//1 53//1 65//1 66//1
f 57//19 69//19 70//19 58//19
f 56//20 68//20 69//20 57//20
f 53//1 49//1 61//1 65//1
f 41//1 37//1 79//1 83//1
f 44//21 74//21 75//21 45//21
f 45//22 75//22 76//22 46//22
f 42//1 41//1 83//1 84//1
f 43//1 42//1 84//1 73//1
f 86//3 96//3 78//3 80//3
f 96//3 95//3 77//3 78//3
f 87//12 81//12 82//12 88//12
f 94//10 88//10 82//10 76//10
f 85//6 79//6 81//6 87//6
f 91//5 86//5 80//5 73//5
f 95//3 92//3 74//3 77//3
f 98//3 56//3 92//3 95//3
f 49//6 85//6 87//6 51//6
f 58//10 52//10 88//10 94//10
f 51//12 87//12 88//12 52//12
f 100//3 98//3 95//3 96//3
f 50//3 100//3 96//3 86//3
f 83//1 79//1 85//1 89//1
f 74//23 92//23 93//23 75//23
f 75//24 93//24 94//24 76//24
f 84//1 83//1 89//1 90//1
f 73//1 84//1 90//1 91//1
f 59//3 71//3 97//3 98//3
f 72//3 60//3 100//3 99//3
f 60//3 59//3 98//3 100//3
f 71//3 72//3 99//3 97//3
f 104//3 103//3 101//3 102//3
f 60//10 72//10 104//10 102//10
f 59//2 60//2 102//2 101//2
f 71//5 59//5 101//5 103//5
f 33//3 47//3 105//3 106//3
f 48//3 36//3 108//3 107//3
f 36//3 33//3 106//3 108//3
f 47//3 48//3 107//3 105//3
f 112//3 111//3 109//3 110//3
f 36//10 48//10 112//10 110//10
f 33//2 36//2 110//2 109//2
f 47//5 33//5 109//5 111//5
f 114//1 91//1 90//1 113//1 116//1
f 130//25 128//25 146//25 148//25
f 119//26 117//26 137//26 139//26
f 116//27 121//27 135//27 134//27
f 114//4 116//4 134//4 133//4
f 120//28 115//28 131//28 138//28
f 117//29 118//29 136//29 137//29
f 121//30 119//30 139//30 135//30
f 115//2 55//2 132//2 131//2
f 118//31 120//31 138//31 136//31
f 123//1 122//1 131//1 132//1
f 124//3 123//3 132//3 133//3
f 125//1 124//1 133//1 134//1
f 126//1 125//1 134//1 135//1
f 127//1 128//1 137//1 136//1
f 129//1 127//1 136//1 138//1
f 128//1 130//1 139//1 137//1
f 122//1 129//1 138//1 131//1
f 130//1 126//1 135//1 139//1
f 147//1 140//1 141//1 142//1 143//1 144//1 148//1 146//1 145//1
f 125//32 126//32 144//32 143//32
f 122//4 123//4 141//4 140//4
f 129//33 122//33 140//33 147//33
f 128//34 127//34 145//34 146//34
f 126//35 130//35 148//35 144//35
f 127//36 129//36 147//36 145//36
f 124//2 125//2 143//2 142//2
f 86//37 91//37 114//37 133//37 124//37 142//37 141//37 123//37 132//37 55//37 50//37
